<?xml version="1.0" standalone="no"?>
<!DOCTYPE svg PUBLIC "-//W3C//DTD SVG 20010904//EN"
 "http://www.w3.org/TR/2001/REC-SVG-20010904/DTD/svg10.dtd">
<svg version="1.0" xmlns="http://www.w3.org/2000/svg"
 width="72.000000pt" height="72.000000pt" viewBox="0 0 72.000000 72.000000"
 preserveAspectRatio="xMidYMid meet">
<metadata>
Created by potrace 1.11, written by Peter Selinger 2001-2013
</metadata>
<g transform="translate(0.000000,72.000000) scale(0.100000,-0.100000)"
fill="#000000" stroke="none">
<path d="M364 615 c-4 -9 -2 -21 4 -27 15 -15 44 -1 40 19 -4 23 -36 29 -44 8z"/>
<path d="M443 609 c-7 -7 -9 -26 -6 -46 l6 -35 -42 7 c-37 6 -41 5 -41 -14 0
-26 13 -33 42 -22 15 6 31 5 42 -1 20 -11 50 8 38 26 -4 6 -7 29 -7 50 0 41
-13 54 -32 35z"/>
<path d="M223 593 c-8 -20 0 -24 51 -27 46 -3 71 10 58 30 -11 15 -103 13
-109 -3z"/>
<path d="M505 590 c-10 -17 12 -37 25 -24 8 8 6 15 -4 23 -10 9 -16 9 -21 1z"/>
<path d="M223 539 c-7 -7 -9 -26 -6 -46 l6 -34 -39 3 c-33 3 -39 0 -39 -17 0
-15 6 -19 25 -17 35 3 42 3 65 0 18 -3 20 3 20 56 0 59 -10 77 -32 55z"/>
<path d="M521 541 c-9 -6 -12 -18 -7 -36 4 -15 2 -32 -3 -39 -8 -9 -6 -18 4
-32 13 -18 15 -18 31 -2 14 14 15 20 5 32 -10 11 -10 20 -1 37 14 26 -6 54
-29 40z"/>
<path d="M287 526 c-9 -22 19 -42 37 -26 19 15 10 40 -14 40 -10 0 -20 -6 -23
-14z"/>
<path d="M165 520 c-9 -15 3 -30 20 -24 7 3 11 12 8 20 -6 16 -19 18 -28 4z"/>
<path d="M576 521 c-3 -5 1 -14 8 -20 16 -13 32 2 21 19 -8 12 -22 13 -29 1z"/>
<path d="M289 455 c-1 -5 0 -14 1 -20 6 -25 5 -102 -2 -122 -5 -17 -3 -25 11
-33 28 -14 47 11 31 40 -8 15 -9 25 -2 32 7 7 7 19 1 35 -13 35 5 57 33 42 14
-8 27 -8 43 -1 31 14 47 -2 34 -35 -5 -15 -5 -31 0 -41 6 -11 5 -24 -1 -36 -7
-13 -6 -22 4 -33 13 -13 17 -12 32 2 11 11 13 21 8 29 -5 6 -8 43 -6 81 l4 71
-95 0 c-58 0 -95 -4 -96 -11z"/>
<path d="M588 463 c-2 -5 -3 -30 -3 -58 0 -43 3 -50 20 -50 17 0 20 8 21 58 2
49 -1 57 -16 57 -11 0 -20 -3 -22 -7z"/>
<path d="M133 383 c-9 -22 4 -27 67 -29 41 -1 60 3 64 12 8 20 -13 28 -73 29
-36 1 -55 -3 -58 -12z"/>
<path d="M369 398 c-1 -2 -2 -29 -4 -60 -2 -40 1 -58 10 -62 21 -8 32 15 31
69 -1 39 -5 50 -18 53 -10 2 -18 2 -19 0z"/>
<path d="M512 387 c-6 -7 -7 -18 -2 -26 4 -8 6 -29 3 -46 -6 -36 10 -53 32
-35 10 8 12 18 6 28 -5 8 -5 28 -1 43 11 39 -15 64 -38 36z"/>
<path d="M163 322 c-17 -11 -11 -107 7 -107 10 0 15 11 15 35 0 33 1 35 33 32
22 -1 34 3 39 14 7 20 -16 35 -37 24 -8 -4 -22 -4 -31 0 -8 5 -20 6 -26 2z"/>
<path d="M577 308 c-2 -7 0 -21 5 -31 14 -27 0 -38 -38 -31 -30 5 -34 4 -34
-14 0 -18 6 -21 54 -21 l54 0 -2 52 c-1 39 -5 53 -18 55 -9 2 -18 -3 -21 -10z"/>
<path d="M213 234 c-6 -17 14 -36 32 -31 6 2 11 13 13 25 3 17 -2 22 -18 22
-11 0 -23 -7 -27 -16z"/>
<path d="M287 238 c-2 -7 0 -21 5 -30 5 -11 5 -25 0 -35 -12 -24 -4 -43 18
-43 22 0 30 18 19 46 -4 11 -4 27 1 34 4 7 6 19 3 27 -6 17 -40 17 -46 1z"/>
<path d="M366 240 c-1 -3 -2 -30 -2 -60 1 -48 4 -55 21 -55 17 0 20 6 17 43
l-4 44 39 -4 c33 -3 38 0 41 19 3 20 -1 21 -53 20 -31 -1 -57 -4 -59 -7z"/>
<path d="M236 183 c-12 -12 -6 -33 9 -33 8 0 15 6 15 14 0 17 -14 28 -24 19z"/>
<path d="M516 183 c-12 -12 -6 -33 9 -33 8 0 15 6 15 14 0 17 -14 28 -24 19z"/>
<path d="M438 168 c-8 -21 2 -38 24 -38 14 0 19 6 16 22 -3 25 -33 36 -40 16z"/>
</g>
</svg>
